<svg width="100" height="100" viewBox="0 0 100 100" fill="none" xmlns="http://www.w3.org/2000/svg">
<g clip-path="url(#clip0_506_261)">
<circle cx="50" cy="80" r="20" fill="#F3B412"/>
<path d="M39.1172 -16L68.095 -8.23543L49.9776 59.3794L20.9999 51.6148L39.1172 -16Z" fill="#C64242"/>
<rect x="39.1172" y="-16" width="3" height="70" transform="rotate(15 39.1172 -16)" fill="#F28232"/>
<rect x="44.9131" y="-14.4473" width="3" height="70" transform="rotate(15 44.9131 -14.4473)" fill="#F28232"/>
<rect x="42.0146" y="-15.2236" width="3" height="70" transform="rotate(15 42.0146 -15.2236)" fill="#2C2926"/>
<rect x="47.8105" y="-13.6704" width="3" height="70" transform="rotate(15 47.8105 -13.6704)" fill="#2C2926"/>
<path d="M32 -8.23535L60.9778 -15.9999L79.0951 51.6149L50.1173 59.3795L32 -8.23535Z" fill="#C64242"/>
<rect x="32" y="-8.23535" width="3" height="70" transform="rotate(-15 32 -8.23535)" fill="#F28232"/>
<rect x="37.7959" y="-9.78809" width="3" height="70" transform="rotate(-15 37.7959 -9.78809)" fill="#F28232"/>
<rect x="34.8975" y="-9.01172" width="3" height="70" transform="rotate(-15 34.8975 -9.01172)" fill="#2C2926"/>
<rect x="40.6934" y="-10.5649" width="3" height="70" transform="rotate(-15 40.6934 -10.5649)" fill="#2C2926"/>
</g>
<defs>
<clipPath id="clip0_506_261">
<rect width="100" height="100" fill="white"/>
</clipPath>
</defs>
</svg>
