<svg width="100" height="100" viewBox="0 0 100 100" fill="none" xmlns="http://www.w3.org/2000/svg">
<g clip-path="url(#clip0_512_343)">
<circle cx="50" cy="80" r="20" fill="#D1B20F"/>
<path d="M39.1172 -16L68.095 -8.23543L49.9776 59.3794L20.9999 51.6148L39.1172 -16Z" fill="#C64242"/>
<rect x="49.2129" y="-13.2949" width="3" height="70" transform="rotate(15 49.2129 -13.2949)" fill="#F28232"/>
<rect x="55.0088" y="-11.7417" width="3" height="70" transform="rotate(15 55.0088 -11.7417)" fill="#F28232"/>
<rect x="52.1113" y="-12.5186" width="3" height="70" transform="rotate(15 52.1113 -12.5186)" fill="#2C2926"/>
<rect x="57.9062" y="-10.9653" width="3" height="70" transform="rotate(15 57.9062 -10.9653)" fill="#2C2926"/>
<rect x="46.3154" y="-14.0713" width="3" height="70" transform="rotate(15 46.3154 -14.0713)" fill="#2C2926"/>
<path d="M32 -8.23535L60.9778 -15.9999L79.0951 51.6149L50.1173 59.3795L32 -8.23535Z" fill="#C64242"/>
<rect x="42.0957" y="-10.9404" width="3" height="70" transform="rotate(-15 42.0957 -10.9404)" fill="#F28232"/>
<rect x="47.8916" y="-12.4937" width="3" height="70" transform="rotate(-15 47.8916 -12.4937)" fill="#F28232"/>
<rect x="44.9941" y="-11.7168" width="3" height="70" transform="rotate(-15 44.9941 -11.7168)" fill="#2C2926"/>
<rect x="50.7891" y="-13.27" width="3" height="70" transform="rotate(-15 50.7891 -13.27)" fill="#2C2926"/>
<rect x="39.1982" y="-10.1641" width="3" height="70" transform="rotate(-15 39.1982 -10.1641)" fill="#2C2926"/>
</g>
<defs>
<clipPath id="clip0_512_343">
<rect width="100" height="100" fill="white"/>
</clipPath>
</defs>
</svg>
