<svg width="100" height="100" viewBox="0 0 100 100" fill="none" xmlns="http://www.w3.org/2000/svg">
<g clip-path="url(#clip0_514_454)">
<path d="M68.3184 96.5235C62.2088 98.9291 55.6853 100.108 49.1202 99.9921C42.5551 99.8765 36.0771 98.469 30.056 95.8498L50.0004 49.9999L68.3184 96.5235Z" fill="#D8B14C"/>
<path d="M81.4595 81.4594C77.2808 85.6381 72.3201 88.9527 66.8604 91.2142C61.4008 93.4756 55.5491 94.6396 49.6396 94.6396C43.7302 94.6396 37.8785 93.4756 32.4189 91.2142C26.9592 88.9527 21.9985 85.638 17.8198 81.4594L49.6396 49.6396L81.4595 81.4594Z" fill="#D8B14C"/>
<circle cx="50" cy="50" r="40" fill="#6A6861"/>
<circle cx="50" cy="50" r="35" fill="#EFEBD6"/>
<path d="M14.6447 14.6444C19.2876 10.0015 24.7995 6.31853 30.8658 3.8058C36.9321 1.29306 43.4339 -0.000226978 50 -0.000226834C56.5661 -0.000226691 63.0679 1.29306 69.1342 3.8058C75.2005 6.31853 80.7124 10.0015 85.3553 14.6444L50 49.9998L14.6447 14.6444Z" fill="#C73B32"/>
<circle cx="50" cy="50" r="30" fill="#D8B14C"/>
<circle cx="50" cy="50" r="20" fill="#6A6861"/>
<path d="M70 50C70 61.0457 61.0457 70 50 70C38.9543 70 30 61.0457 30 50C30 38.9543 38.9543 30 50 30C61.0457 30 70 38.9543 70 50Z" fill="#6A6861"/>
<path d="M70 50C70 61.0457 61.0457 70 50 70C38.9543 70 30 61.0457 30 50C30 38.9543 38.9543 30 50 30C61.0457 30 70 38.9543 70 50Z" fill="#6A6861"/>
<rect x="40" y="83" width="20" height="11" fill="#D8B14C"/>
<path d="M50 70L53.3677 80.3647H64.2658L55.4491 86.7705L58.8168 97.1353L50 90.7295L41.1832 97.1353L44.5509 86.7705L35.7342 80.3647H46.6323L50 70Z" fill="#BD362C"/>
</g>
<defs>
<clipPath id="clip0_514_454">
<rect width="100" height="100" fill="white"/>
</clipPath>
</defs>
</svg>
