<svg width="100" height="100" viewBox="0 0 100 100" fill="none" xmlns="http://www.w3.org/2000/svg">
<g clip-path="url(#clip0_514_536)">
<circle cx="50" cy="80" r="20" fill="#BF9D25"/>
<circle cx="50" cy="80" r="20" fill="#B49170"/>
<path d="M39.1172 -16L68.095 -8.23543L49.9776 59.3794L20.9999 51.6148L39.1172 -16Z" fill="#C64242"/>
<rect x="43.9473" y="-14.7061" width="3" height="70" transform="rotate(15 43.9473 -14.7061)" fill="#DCCCC0"/>
<rect x="58.4355" y="-10.8237" width="6" height="70" transform="rotate(15 58.4355 -10.8237)" fill="#DCCCC0"/>
<rect x="39.1172" y="-16" width="5" height="70" transform="rotate(15 39.1172 -16)" fill="#3C26C0"/>
<rect x="46.8447" y="-13.9297" width="14" height="70" transform="rotate(15 46.8447 -13.9297)" fill="#B10B0B"/>
<rect x="63.2656" y="-9.5293" width="5" height="70" transform="rotate(15 63.2656 -9.5293)" fill="#3C26C0"/>
<path d="M32 -8.23535L60.9778 -15.9999L79.0951 51.6149L50.1173 59.3795L32 -8.23535Z" fill="#C64242"/>
<rect x="36.8301" y="-9.5293" width="3" height="70" transform="rotate(-15 36.8301 -9.5293)" fill="#DCCCC0"/>
<rect x="51.3184" y="-13.4116" width="6" height="70" transform="rotate(-15 51.3184 -13.4116)" fill="#DCCCC0"/>
<rect x="32" y="-8.23535" width="5" height="70" transform="rotate(-15 32 -8.23535)" fill="#3C26C0"/>
<rect x="39.7275" y="-10.3057" width="14" height="70" transform="rotate(-15 39.7275 -10.3057)" fill="#B10B0B"/>
<rect x="56.1484" y="-14.7061" width="5" height="70" transform="rotate(-15 56.1484 -14.7061)" fill="#3C26C0"/>
</g>
<defs>
<clipPath id="clip0_514_536">
<rect width="100" height="100" fill="white"/>
</clipPath>
</defs>
</svg>
