<svg width="100" height="100" viewBox="0 0 100 100" fill="none" xmlns="http://www.w3.org/2000/svg">
<g clip-path="url(#clip0_514_568)">
<circle cx="50" cy="80" r="20" fill="#CE9C50"/>
<path d="M39.1172 -16L68.095 -8.23543L49.9776 59.3794L20.9999 51.6148L39.1172 -16Z" fill="#C64242"/>
<rect x="44.9131" y="-14.4473" width="6" height="70" transform="rotate(15 44.9131 -14.4473)" fill="#69BE95"/>
<rect x="56.5039" y="-11.3413" width="6" height="70" transform="rotate(15 56.5039 -11.3413)" fill="#69BE95"/>
<rect x="39.1172" y="-16" width="6" height="70" transform="rotate(15 39.1172 -16)" fill="#2C2926"/>
<rect x="50.708" y="-12.894" width="6" height="70" transform="rotate(15 50.708 -12.894)" fill="#2C2926"/>
<rect x="62.2998" y="-9.78857" width="6" height="70" transform="rotate(15 62.2998 -9.78857)" fill="#2C2926"/>
<path d="M32 -8.23535L60.9778 -15.9999L79.0951 51.6149L50.1173 59.3795L32 -8.23535Z" fill="#C64242"/>
<rect x="37.7959" y="-9.78809" width="6" height="70" transform="rotate(-15 37.7959 -9.78809)" fill="#69BE95"/>
<rect x="49.3867" y="-12.894" width="6" height="70" transform="rotate(-15 49.3867 -12.894)" fill="#69BE95"/>
<rect x="32" y="-8.23535" width="6" height="70" transform="rotate(-15 32 -8.23535)" fill="#2C2926"/>
<rect x="43.5908" y="-11.3413" width="6" height="70" transform="rotate(-15 43.5908 -11.3413)" fill="#2C2926"/>
<rect x="55.1826" y="-14.4468" width="6" height="70" transform="rotate(-15 55.1826 -14.4468)" fill="#2C2926"/>
</g>
<defs>
<clipPath id="clip0_514_568">
<rect width="100" height="100" fill="white"/>
</clipPath>
</defs>
</svg>
