<svg width="100" height="100" viewBox="0 0 100 100" fill="none" xmlns="http://www.w3.org/2000/svg">
<g clip-path="url(#clip0_511_255)">
<circle cx="50" cy="80" r="20" fill="#F2C878"/>
<path d="M50 60C52.6264 60 55.2272 60.5173 57.6537 61.5224C60.0802 62.5275 62.285 64.0007 64.1421 65.8579C65.9993 67.715 67.4725 69.9198 68.4776 72.3463C69.4827 74.7728 70 77.3736 70 80L50 80L50 60Z" fill="#C73B32"/>
<circle cx="49.5" cy="79.5" r="12.5" fill="#4D4438"/>
<path d="M39.1172 -16L68.095 -8.23543L49.9776 59.3794L20.9999 51.6148L39.1172 -16Z" fill="#C64242"/>
<rect x="48.7764" y="-13.4116" width="10" height="70" transform="rotate(15 48.7764 -13.4116)" fill="#EEE0D6"/>
<path d="M32 -8.23535L60.9778 -15.9999L79.0951 51.6149L50.1173 59.3795L32 -8.23535Z" fill="#C64242"/>
<rect x="41.6592" y="-10.8237" width="10" height="70" transform="rotate(-15 41.6592 -10.8237)" fill="#EEE0D6"/>
</g>
<defs>
<clipPath id="clip0_511_255">
<rect width="100" height="100" fill="white"/>
</clipPath>
</defs>
</svg>
