<svg width="100" height="100" viewBox="0 0 100 100" fill="none" xmlns="http://www.w3.org/2000/svg">
<g clip-path="url(#clip0_505_249)">
<circle cx="50" cy="80" r="20" fill="#B69F71"/>
<mask id="path-2-inside-1_505_249" fill="white">
<path d="M68.0947 -8.23535L39.117 -15.9999L20.9996 51.6149L49.9774 59.3795L68.0947 -8.23535Z"/>
</mask>
<path d="M68.0947 -8.23535L39.117 -15.9999L20.9996 51.6149L49.9774 59.3795L68.0947 -8.23535Z" fill="#747987"/>
<path d="M42.0147 -15.2235L23.8974 52.3913L18.1018 50.8384L36.2192 -16.7764L42.0147 -15.2235ZM47.0796 58.603L65.1969 -9.01181L70.9925 -7.45889L52.8752 60.1559L47.0796 58.603Z" fill="#C79534" mask="url(#path-2-inside-1_505_249)"/>
<mask id="path-4-inside-2_505_249" fill="white">
<path d="M32 -8.23535L60.9778 -15.9999L79.0951 51.6149L50.1173 59.3795L32 -8.23535Z"/>
</mask>
<path d="M32 -8.23535L60.9778 -15.9999L79.0951 51.6149L50.1173 59.3795L32 -8.23535Z" fill="#747987"/>
<path d="M58.08 -15.2235L76.1973 52.3913L81.9929 50.8384L63.8756 -16.7764L58.08 -15.2235ZM53.0151 58.603L34.8978 -9.01181L29.1022 -7.45889L47.2196 60.1559L53.0151 58.603Z" fill="#C79534" mask="url(#path-4-inside-2_505_249)"/>
</g>
<defs>
<clipPath id="clip0_505_249">
<rect width="100" height="100" fill="white"/>
</clipPath>
</defs>
</svg>
